solid OpenSCAD_Model
  facet normal -1 0 0
    outer loop
      vertex 0 0 0
      vertex 0 50 8
      vertex 0 50 0
    endloop
  endfacet
  facet normal -1 -0 0
    outer loop
      vertex 0 50 8
      vertex 0 0 0
      vertex 0 0 8
    endloop
  endfacet
  facet normal 0 0 1
    outer loop
      vertex 80 50 8
      vertex 74 32 8
      vertex 80 0 8
    endloop
  endfacet
  facet normal 0 0 1
    outer loop
      vertex 80 50 8
      vertex 60 32 8
      vertex 74 32 8
    endloop
  endfacet
  facet normal 0 0 1
    outer loop
      vertex 60 32 8
      vertex 49 32 8
      vertex 60 18 8
    endloop
  endfacet
  facet normal 0 0 1
    outer loop
      vertex 80 50 8
      vertex 49 32 8
      vertex 60 32 8
    endloop
  endfacet
  facet normal 0 0 1
    outer loop
      vertex 80 50 8
      vertex 35 32 8
      vertex 49 32 8
    endloop
  endfacet
  facet normal 0 0 1
    outer loop
      vertex 35 32 8
      vertex 24 32 8
      vertex 35 18 8
    endloop
  endfacet
  facet normal -0 0 1
    outer loop
      vertex 0 50 8
      vertex 35 32 8
      vertex 80 50 8
    endloop
  endfacet
  facet normal 0 0 1
    outer loop
      vertex 35 32 8
      vertex 0 50 8
      vertex 24 32 8
    endloop
  endfacet
  facet normal 0 0 1
    outer loop
      vertex 10 32 8
      vertex 0 50 8
      vertex 10 18 8
    endloop
  endfacet
  facet normal 0 0 1
    outer loop
      vertex 24 32 8
      vertex 0 50 8
      vertex 10 32 8
    endloop
  endfacet
  facet normal -0 0 1
    outer loop
      vertex 74 18 8
      vertex 80 0 8
      vertex 74 32 8
    endloop
  endfacet
  facet normal -0 0 1
    outer loop
      vertex 60 18 8
      vertex 80 0 8
      vertex 74 18 8
    endloop
  endfacet
  facet normal 0 0 1
    outer loop
      vertex 49 18 8
      vertex 60 18 8
      vertex 49 32 8
    endloop
  endfacet
  facet normal -0 0 1
    outer loop
      vertex 49 18 8
      vertex 80 0 8
      vertex 60 18 8
    endloop
  endfacet
  facet normal -0 0 1
    outer loop
      vertex 35 18 8
      vertex 80 0 8
      vertex 49 18 8
    endloop
  endfacet
  facet normal 0 0 1
    outer loop
      vertex 24 18 8
      vertex 35 18 8
      vertex 24 32 8
    endloop
  endfacet
  facet normal 0 0 1
    outer loop
      vertex 0 0 8
      vertex 35 18 8
      vertex 24 18 8
    endloop
  endfacet
  facet normal 0 0 1
    outer loop
      vertex 0 0 8
      vertex 24 18 8
      vertex 10 18 8
    endloop
  endfacet
  facet normal 0 0 1
    outer loop
      vertex 35 18 8
      vertex 0 0 8
      vertex 80 0 8
    endloop
  endfacet
  facet normal 0 0 1
    outer loop
      vertex 0 0 8
      vertex 10 18 8
      vertex 0 50 8
    endloop
  endfacet
  facet normal 1 -0 0
    outer loop
      vertex 80 0 8
      vertex 80 50 0
      vertex 80 50 8
    endloop
  endfacet
  facet normal 1 0 0
    outer loop
      vertex 80 50 0
      vertex 80 0 8
      vertex 80 0 0
    endloop
  endfacet
  facet normal 0 1 -0
    outer loop
      vertex 80 50 0
      vertex 0 50 8
      vertex 80 50 8
    endloop
  endfacet
  facet normal 0 1 0
    outer loop
      vertex 0 50 8
      vertex 80 50 0
      vertex 0 50 0
    endloop
  endfacet
  facet normal 0 0 1
    outer loop
      vertex 85 55 0
      vertex 80 50 0
      vertex 85 -5 0
    endloop
  endfacet
  facet normal 0 0 1
    outer loop
      vertex 85 55 0
      vertex 0 50 0
      vertex 80 50 0
    endloop
  endfacet
  facet normal 0 0 1
    outer loop
      vertex 0 50 0
      vertex -5 55 0
      vertex 0 0 0
    endloop
  endfacet
  facet normal -0 0 1
    outer loop
      vertex -5 55 0
      vertex 0 50 0
      vertex 85 55 0
    endloop
  endfacet
  facet normal -0 0 1
    outer loop
      vertex 80 0 0
      vertex 85 -5 0
      vertex 80 50 0
    endloop
  endfacet
  facet normal -0 0 1
    outer loop
      vertex 0 0 0
      vertex 85 -5 0
      vertex 80 0 0
    endloop
  endfacet
  facet normal 0 0 1
    outer loop
      vertex 0 0 0
      vertex -5 -5 0
      vertex 85 -5 0
    endloop
  endfacet
  facet normal 0 0 1
    outer loop
      vertex -5 -5 0
      vertex 0 0 0
      vertex -5 55 0
    endloop
  endfacet
  facet normal 0 -1 0
    outer loop
      vertex 0 0 0
      vertex 80 0 8
      vertex 0 0 8
    endloop
  endfacet
  facet normal 0 -1 -0
    outer loop
      vertex 80 0 8
      vertex 0 0 0
      vertex 80 0 0
    endloop
  endfacet
  facet normal -1 0 0
    outer loop
      vertex 10 18 8
      vertex 10 32 13
      vertex 10 32 8
    endloop
  endfacet
  facet normal -1 -0 0
    outer loop
      vertex 10 32 13
      vertex 10 18 8
      vertex 10 18 13
    endloop
  endfacet
  facet normal 1 -0 0
    outer loop
      vertex 24 18 13
      vertex 24 32 8
      vertex 24 32 13
    endloop
  endfacet
  facet normal 1 0 0
    outer loop
      vertex 24 32 8
      vertex 24 18 13
      vertex 24 18 8
    endloop
  endfacet
  facet normal 0 1 -0
    outer loop
      vertex 24 32 8
      vertex 10 32 13
      vertex 24 32 13
    endloop
  endfacet
  facet normal 0 1 0
    outer loop
      vertex 10 32 13
      vertex 24 32 8
      vertex 10 32 8
    endloop
  endfacet
  facet normal 0 -1 0
    outer loop
      vertex 10 18 8
      vertex 24 18 13
      vertex 10 18 13
    endloop
  endfacet
  facet normal 0 -1 -0
    outer loop
      vertex 24 18 13
      vertex 10 18 8
      vertex 24 18 8
    endloop
  endfacet
  facet normal -1 0 0
    outer loop
      vertex 35 18 8
      vertex 35 32 13
      vertex 35 32 8
    endloop
  endfacet
  facet normal -1 -0 0
    outer loop
      vertex 35 32 13
      vertex 35 18 8
      vertex 35 18 13
    endloop
  endfacet
  facet normal 1 -0 0
    outer loop
      vertex 49 18 13
      vertex 49 32 8
      vertex 49 32 13
    endloop
  endfacet
  facet normal 1 0 0
    outer loop
      vertex 49 32 8
      vertex 49 18 13
      vertex 49 18 8
    endloop
  endfacet
  facet normal 0 1 -0
    outer loop
      vertex 49 32 8
      vertex 35 32 13
      vertex 49 32 13
    endloop
  endfacet
  facet normal 0 1 0
    outer loop
      vertex 35 32 13
      vertex 49 32 8
      vertex 35 32 8
    endloop
  endfacet
  facet normal 0 -1 0
    outer loop
      vertex 35 18 8
      vertex 49 18 13
      vertex 35 18 13
    endloop
  endfacet
  facet normal 0 -1 -0
    outer loop
      vertex 49 18 13
      vertex 35 18 8
      vertex 49 18 8
    endloop
  endfacet
  facet normal -1 0 0
    outer loop
      vertex 60 18 8
      vertex 60 32 13
      vertex 60 32 8
    endloop
  endfacet
  facet normal -1 -0 0
    outer loop
      vertex 60 32 13
      vertex 60 18 8
      vertex 60 18 13
    endloop
  endfacet
  facet normal 1 -0 0
    outer loop
      vertex 74 18 13
      vertex 74 32 8
      vertex 74 32 13
    endloop
  endfacet
  facet normal 1 0 0
    outer loop
      vertex 74 32 8
      vertex 74 18 13
      vertex 74 18 8
    endloop
  endfacet
  facet normal 0 1 -0
    outer loop
      vertex 74 32 8
      vertex 60 32 13
      vertex 74 32 13
    endloop
  endfacet
  facet normal 0 1 0
    outer loop
      vertex 60 32 13
      vertex 74 32 8
      vertex 60 32 8
    endloop
  endfacet
  facet normal 0 -1 0
    outer loop
      vertex 60 18 8
      vertex 74 18 13
      vertex 60 18 13
    endloop
  endfacet
  facet normal 0 -1 -0
    outer loop
      vertex 74 18 13
      vertex 60 18 8
      vertex 74 18 8
    endloop
  endfacet
  facet normal 0 0 1
    outer loop
      vertex 24 32 13
      vertex 19 27 13
      vertex 24 18 13
    endloop
  endfacet
  facet normal 0 0 1
    outer loop
      vertex 24 32 13
      vertex 15 27 13
      vertex 19 27 13
    endloop
  endfacet
  facet normal 0 0 1
    outer loop
      vertex 15 27 13
      vertex 10 32 13
      vertex 15 23 13
    endloop
  endfacet
  facet normal -0 0 1
    outer loop
      vertex 10 32 13
      vertex 15 27 13
      vertex 24 32 13
    endloop
  endfacet
  facet normal -0 0 1
    outer loop
      vertex 19 23 13
      vertex 24 18 13
      vertex 19 27 13
    endloop
  endfacet
  facet normal -0 0 1
    outer loop
      vertex 15 23 13
      vertex 24 18 13
      vertex 19 23 13
    endloop
  endfacet
  facet normal 0 0 1
    outer loop
      vertex 15 23 13
      vertex 10 18 13
      vertex 24 18 13
    endloop
  endfacet
  facet normal 0 0 1
    outer loop
      vertex 10 18 13
      vertex 15 23 13
      vertex 10 32 13
    endloop
  endfacet
  facet normal -1 0 0
    outer loop
      vertex 15 23 13
      vertex 15 27 16
      vertex 15 27 13
    endloop
  endfacet
  facet normal -1 -0 0
    outer loop
      vertex 15 27 16
      vertex 15 23 13
      vertex 15 23 16
    endloop
  endfacet
  facet normal 1 -0 0
    outer loop
      vertex 19 23 16
      vertex 19 27 13
      vertex 19 27 16
    endloop
  endfacet
  facet normal 1 0 0
    outer loop
      vertex 19 27 13
      vertex 19 23 16
      vertex 19 23 13
    endloop
  endfacet
  facet normal 0 1 -0
    outer loop
      vertex 19 27 13
      vertex 15 27 16
      vertex 19 27 16
    endloop
  endfacet
  facet normal 0 1 0
    outer loop
      vertex 15 27 16
      vertex 19 27 13
      vertex 15 27 13
    endloop
  endfacet
  facet normal 0 -1 0
    outer loop
      vertex 15 23 13
      vertex 19 23 16
      vertex 15 23 16
    endloop
  endfacet
  facet normal 0 -1 -0
    outer loop
      vertex 19 23 16
      vertex 15 23 13
      vertex 19 23 13
    endloop
  endfacet
  facet normal -0 0 1
    outer loop
      vertex 15 27 16
      vertex 19 23 16
      vertex 19 27 16
    endloop
  endfacet
  facet normal 0 0 1
    outer loop
      vertex 19 23 16
      vertex 15 27 16
      vertex 15 23 16
    endloop
  endfacet
  facet normal 0 0 1
    outer loop
      vertex 49 32 13
      vertex 44 27 13
      vertex 49 18 13
    endloop
  endfacet
  facet normal 0 0 1
    outer loop
      vertex 49 32 13
      vertex 40 27 13
      vertex 44 27 13
    endloop
  endfacet
  facet normal 0 0 1
    outer loop
      vertex 40 27 13
      vertex 35 32 13
      vertex 40 23 13
    endloop
  endfacet
  facet normal -0 0 1
    outer loop
      vertex 35 32 13
      vertex 40 27 13
      vertex 49 32 13
    endloop
  endfacet
  facet normal -0 0 1
    outer loop
      vertex 44 23 13
      vertex 49 18 13
      vertex 44 27 13
    endloop
  endfacet
  facet normal -0 0 1
    outer loop
      vertex 40 23 13
      vertex 49 18 13
      vertex 44 23 13
    endloop
  endfacet
  facet normal 0 0 1
    outer loop
      vertex 40 23 13
      vertex 35 18 13
      vertex 49 18 13
    endloop
  endfacet
  facet normal 0 0 1
    outer loop
      vertex 35 18 13
      vertex 40 23 13
      vertex 35 32 13
    endloop
  endfacet
  facet normal -1 0 0
    outer loop
      vertex 40 23 13
      vertex 40 27 16
      vertex 40 27 13
    endloop
  endfacet
  facet normal -1 -0 0
    outer loop
      vertex 40 27 16
      vertex 40 23 13
      vertex 40 23 16
    endloop
  endfacet
  facet normal 1 -0 0
    outer loop
      vertex 44 23 16
      vertex 44 27 13
      vertex 44 27 16
    endloop
  endfacet
  facet normal 1 0 0
    outer loop
      vertex 44 27 13
      vertex 44 23 16
      vertex 44 23 13
    endloop
  endfacet
  facet normal 0 1 -0
    outer loop
      vertex 44 27 13
      vertex 40 27 16
      vertex 44 27 16
    endloop
  endfacet
  facet normal 0 1 0
    outer loop
      vertex 40 27 16
      vertex 44 27 13
      vertex 40 27 13
    endloop
  endfacet
  facet normal 0 -1 0
    outer loop
      vertex 40 23 13
      vertex 44 23 16
      vertex 40 23 16
    endloop
  endfacet
  facet normal 0 -1 -0
    outer loop
      vertex 44 23 16
      vertex 40 23 13
      vertex 44 23 13
    endloop
  endfacet
  facet normal -0 0 1
    outer loop
      vertex 40 27 16
      vertex 44 23 16
      vertex 44 27 16
    endloop
  endfacet
  facet normal 0 0 1
    outer loop
      vertex 44 23 16
      vertex 40 27 16
      vertex 40 23 16
    endloop
  endfacet
  facet normal -0 0 1
    outer loop
      vertex 60 32 13
      vertex 74 18 13
      vertex 74 32 13
    endloop
  endfacet
  facet normal 0 0 1
    outer loop
      vertex 74 18 13
      vertex 60 32 13
      vertex 60 18 13
    endloop
  endfacet
  facet normal -1 0 0
    outer loop
      vertex 3 5 20
      vertex 3 65 30
      vertex 3 65 20
    endloop
  endfacet
  facet normal -1 -0 0
    outer loop
      vertex 3 65 30
      vertex 3 5 20
      vertex 3 5 30
    endloop
  endfacet
  facet normal -0 0 1
    outer loop
      vertex 3 65 30
      vertex 17 5 30
      vertex 17 65 30
    endloop
  endfacet
  facet normal 0 0 1
    outer loop
      vertex 17 5 30
      vertex 3 65 30
      vertex 3 5 30
    endloop
  endfacet
  facet normal 1 -0 0
    outer loop
      vertex 17 5 30
      vertex 17 65 20
      vertex 17 65 30
    endloop
  endfacet
  facet normal 1 0 0
    outer loop
      vertex 17 65 20
      vertex 17 5 30
      vertex 17 5 20
    endloop
  endfacet
  facet normal 0 0 -1
    outer loop
      vertex 3 5 20
      vertex 17 65 20
      vertex 17 5 20
    endloop
  endfacet
  facet normal -0 0 -1
    outer loop
      vertex 17 65 20
      vertex 3 5 20
      vertex 3 65 20
    endloop
  endfacet
  facet normal 0 -1 0
    outer loop
      vertex 3 5 20
      vertex 17 5 30
      vertex 3 5 30
    endloop
  endfacet
  facet normal 0 -1 -0
    outer loop
      vertex 17 5 30
      vertex 3 5 20
      vertex 17 5 20
    endloop
  endfacet
  facet normal 0 1 -0
    outer loop
      vertex 17 65 20
      vertex 3 65 30
      vertex 17 65 30
    endloop
  endfacet
  facet normal 0 1 0
    outer loop
      vertex 3 65 30
      vertex 17 65 20
      vertex 3 65 20
    endloop
  endfacet
  facet normal -1 0 0
    outer loop
      vertex 28 5 18
      vertex 28 64.3944 31.1265
      vertex 28 64.9178 21.1402
    endloop
  endfacet
  facet normal -1 0 0
    outer loop
      vertex 28 64.3944 31.1265
      vertex 28 5 18
      vertex 28 4.47664 27.9863
    endloop
  endfacet
  facet normal 0 -0.0523367 0.998629
    outer loop
      vertex 28 64.3944 31.1265
      vertex 42 4.47664 27.9863
      vertex 42 64.3944 31.1265
    endloop
  endfacet
  facet normal 0 -0.0523367 0.998629
    outer loop
      vertex 42 4.47664 27.9863
      vertex 28 64.3944 31.1265
      vertex 28 4.47664 27.9863
    endloop
  endfacet
  facet normal 1 0 0
    outer loop
      vertex 42 64.3944 31.1265
      vertex 42 5 18
      vertex 42 64.9178 21.1402
    endloop
  endfacet
  facet normal 1 0 -0
    outer loop
      vertex 42 5 18
      vertex 42 64.3944 31.1265
      vertex 42 4.47664 27.9863
    endloop
  endfacet
  facet normal 2.94593e-18 0.998629 0.05234
    outer loop
      vertex 42 64.9178 21.1402
      vertex 28 64.3944 31.1265
      vertex 42 64.3944 31.1265
    endloop
  endfacet
  facet normal 2.94593e-18 0.998629 0.05234
    outer loop
      vertex 28 64.3944 31.1265
      vertex 42 64.9178 21.1402
      vertex 28 64.9178 21.1402
    endloop
  endfacet
  facet normal 0 0.0523366 -0.998629
    outer loop
      vertex 28 5 18
      vertex 42 64.9178 21.1402
      vertex 42 5 18
    endloop
  endfacet
  facet normal 0 0.0523366 -0.998629
    outer loop
      vertex 42 64.9178 21.1402
      vertex 28 5 18
      vertex 28 64.9178 21.1402
    endloop
  endfacet
  facet normal 2.13123e-18 -0.99863 -0.052336
    outer loop
      vertex 28 5 18
      vertex 42 4.47664 27.9863
      vertex 28 4.47664 27.9863
    endloop
  endfacet
  facet normal 2.13123e-18 -0.99863 -0.052336
    outer loop
      vertex 42 4.47664 27.9863
      vertex 28 5 18
      vertex 42 5 18
    endloop
  endfacet
  facet normal -1 0 0
    outer loop
      vertex 53 5 16
      vertex 53 63.9001 31.1913
      vertex 53 64.7717 21.2293
    endloop
  endfacet
  facet normal -1 0 0
    outer loop
      vertex 53 63.9001 31.1913
      vertex 53 5 16
      vertex 53 4.12844 25.9619
    endloop
  endfacet
  facet normal 0 -0.0871567 0.996195
    outer loop
      vertex 53 63.9001 31.1913
      vertex 67 4.12844 25.9619
      vertex 67 63.9001 31.1913
    endloop
  endfacet
  facet normal 0 -0.0871567 0.996195
    outer loop
      vertex 67 4.12844 25.9619
      vertex 53 63.9001 31.1913
      vertex 53 4.12844 25.9619
    endloop
  endfacet
  facet normal 1 0 0
    outer loop
      vertex 67 63.9001 31.1913
      vertex 67 5 16
      vertex 67 64.7717 21.2293
    endloop
  endfacet
  facet normal 1 0 -0
    outer loop
      vertex 67 5 16
      vertex 67 63.9001 31.1913
      vertex 67 4.12844 25.9619
    endloop
  endfacet
  facet normal 5.30946e-18 0.996194 0.0871595
    outer loop
      vertex 67 64.7717 21.2293
      vertex 53 63.9001 31.1913
      vertex 67 63.9001 31.1913
    endloop
  endfacet
  facet normal 5.30946e-18 0.996194 0.0871595
    outer loop
      vertex 53 63.9001 31.1913
      vertex 67 64.7717 21.2293
      vertex 53 64.7717 21.2293
    endloop
  endfacet
  facet normal 0 0.087155 -0.996195
    outer loop
      vertex 53 5 16
      vertex 67 64.7717 21.2293
      vertex 67 5 16
    endloop
  endfacet
  facet normal 0 0.087155 -0.996195
    outer loop
      vertex 67 64.7717 21.2293
      vertex 53 5 16
      vertex 53 64.7717 21.2293
    endloop
  endfacet
  facet normal 2.76318e-18 -0.996195 -0.0871564
    outer loop
      vertex 53 5 16
      vertex 67 4.12844 25.9619
      vertex 53 4.12844 25.9619
    endloop
  endfacet
  facet normal 2.76318e-18 -0.996195 -0.0871564
    outer loop
      vertex 67 4.12844 25.9619
      vertex 53 5 16
      vertex 67 5 16
    endloop
  endfacet
  facet normal -1 0 0
    outer loop
      vertex -5 -5 -15
      vertex -5 55 0
      vertex -5 55 -15
    endloop
  endfacet
  facet normal -1 -0 0
    outer loop
      vertex -5 55 0
      vertex -5 -5 -15
      vertex -5 -5 0
    endloop
  endfacet
  facet normal 1 -0 0
    outer loop
      vertex 85 -5 0
      vertex 85 55 -15
      vertex 85 55 0
    endloop
  endfacet
  facet normal 1 0 0
    outer loop
      vertex 85 55 -15
      vertex 85 -5 0
      vertex 85 -5 -15
    endloop
  endfacet
  facet normal 0 0 -1
    outer loop
      vertex -5 -5 -15
      vertex 85 55 -15
      vertex 85 -5 -15
    endloop
  endfacet
  facet normal -0 0 -1
    outer loop
      vertex 85 55 -15
      vertex -5 -5 -15
      vertex -5 55 -15
    endloop
  endfacet
  facet normal 0 -1 0
    outer loop
      vertex -5 -5 -15
      vertex 85 -5 0
      vertex -5 -5 0
    endloop
  endfacet
  facet normal 0 -1 -0
    outer loop
      vertex 85 -5 0
      vertex -5 -5 -15
      vertex 85 -5 -15
    endloop
  endfacet
  facet normal 0 1 -0
    outer loop
      vertex 85 55 -15
      vertex -5 55 0
      vertex 85 55 0
    endloop
  endfacet
  facet normal 0 1 0
    outer loop
      vertex -5 55 0
      vertex 85 55 -15
      vertex -5 55 -15
    endloop
  endfacet
endsolid OpenSCAD_Model
