solid OpenSCAD_Model
  facet normal 1 -0 0
    outer loop
      vertex 0.5 4 1.5
      vertex 0.5 18 0
      vertex 0.5 18 1.5
    endloop
  endfacet
  facet normal 1 0 0
    outer loop
      vertex 0.5 18 0
      vertex 0.5 4 1.5
      vertex 0.5 4 0
    endloop
  endfacet
  facet normal -1 0 0
    outer loop
      vertex 14.5 4 0
      vertex 14.5 18 1.5
      vertex 14.5 18 0
    endloop
  endfacet
  facet normal -1 -0 0
    outer loop
      vertex 14.5 18 1.5
      vertex 14.5 4 0
      vertex 14.5 4 1.5
    endloop
  endfacet
  facet normal 0 1 -0
    outer loop
      vertex 14.5 4 0
      vertex 0.5 4 1.5
      vertex 14.5 4 1.5
    endloop
  endfacet
  facet normal 0 1 0
    outer loop
      vertex 0.5 4 1.5
      vertex 14.5 4 0
      vertex 0.5 4 0
    endloop
  endfacet
  facet normal 0 -1 0
    outer loop
      vertex 0.5 18 0
      vertex 14.5 18 1.5
      vertex 0.5 18 1.5
    endloop
  endfacet
  facet normal 0 -1 -0
    outer loop
      vertex 14.5 18 1.5
      vertex 0.5 18 0
      vertex 14.5 18 0
    endloop
  endfacet
  facet normal 1 -0 0
    outer loop
      vertex 15.5 4 1.5
      vertex 15.5 18 0
      vertex 15.5 18 1.5
    endloop
  endfacet
  facet normal 1 0 0
    outer loop
      vertex 15.5 18 0
      vertex 15.5 4 1.5
      vertex 15.5 4 0
    endloop
  endfacet
  facet normal -1 0 0
    outer loop
      vertex 29.5 4 0
      vertex 29.5 18 1.5
      vertex 29.5 18 0
    endloop
  endfacet
  facet normal -1 -0 0
    outer loop
      vertex 29.5 18 1.5
      vertex 29.5 4 0
      vertex 29.5 4 1.5
    endloop
  endfacet
  facet normal 0 -1 0
    outer loop
      vertex 15.5 18 0
      vertex 29.5 18 1.5
      vertex 15.5 18 1.5
    endloop
  endfacet
  facet normal 0 -1 -0
    outer loop
      vertex 29.5 18 1.5
      vertex 15.5 18 0
      vertex 29.5 18 0
    endloop
  endfacet
  facet normal 0 1 -0
    outer loop
      vertex 29.5 4 0
      vertex 15.5 4 1.5
      vertex 29.5 4 1.5
    endloop
  endfacet
  facet normal 0 1 0
    outer loop
      vertex 15.5 4 1.5
      vertex 29.5 4 0
      vertex 15.5 4 0
    endloop
  endfacet
  facet normal 1 -0 0
    outer loop
      vertex 30.5 4 1.5
      vertex 30.5 18 0
      vertex 30.5 18 1.5
    endloop
  endfacet
  facet normal 1 0 0
    outer loop
      vertex 30.5 18 0
      vertex 30.5 4 1.5
      vertex 30.5 4 0
    endloop
  endfacet
  facet normal -1 0 0
    outer loop
      vertex 44.5 4 0
      vertex 44.5 18 1.5
      vertex 44.5 18 0
    endloop
  endfacet
  facet normal -1 -0 0
    outer loop
      vertex 44.5 18 1.5
      vertex 44.5 4 0
      vertex 44.5 4 1.5
    endloop
  endfacet
  facet normal 0 -1 0
    outer loop
      vertex 30.5 18 0
      vertex 44.5 18 1.5
      vertex 30.5 18 1.5
    endloop
  endfacet
  facet normal 0 -1 -0
    outer loop
      vertex 44.5 18 1.5
      vertex 30.5 18 0
      vertex 44.5 18 0
    endloop
  endfacet
  facet normal 0 1 -0
    outer loop
      vertex 44.5 4 0
      vertex 30.5 4 1.5
      vertex 44.5 4 1.5
    endloop
  endfacet
  facet normal 0 1 0
    outer loop
      vertex 30.5 4 1.5
      vertex 44.5 4 0
      vertex 30.5 4 0
    endloop
  endfacet
  facet normal 1 -0 0
    outer loop
      vertex 45.5 4 1.5
      vertex 45.5 18 0
      vertex 45.5 18 1.5
    endloop
  endfacet
  facet normal 1 0 0
    outer loop
      vertex 45.5 18 0
      vertex 45.5 4 1.5
      vertex 45.5 4 0
    endloop
  endfacet
  facet normal -1 0 0
    outer loop
      vertex 59.5 4 0
      vertex 59.5 18 1.5
      vertex 59.5 18 0
    endloop
  endfacet
  facet normal -1 -0 0
    outer loop
      vertex 59.5 18 1.5
      vertex 59.5 4 0
      vertex 59.5 4 1.5
    endloop
  endfacet
  facet normal 0 1 -0
    outer loop
      vertex 59.5 4 0
      vertex 45.5 4 1.5
      vertex 59.5 4 1.5
    endloop
  endfacet
  facet normal 0 1 0
    outer loop
      vertex 45.5 4 1.5
      vertex 59.5 4 0
      vertex 45.5 4 0
    endloop
  endfacet
  facet normal 0 -1 0
    outer loop
      vertex 45.5 18 0
      vertex 59.5 18 1.5
      vertex 45.5 18 1.5
    endloop
  endfacet
  facet normal 0 -1 -0
    outer loop
      vertex 59.5 18 1.5
      vertex 45.5 18 0
      vertex 59.5 18 0
    endloop
  endfacet
  facet normal 1 -0 0
    outer loop
      vertex 60.5 4 1.5
      vertex 60.5 18 0
      vertex 60.5 18 1.5
    endloop
  endfacet
  facet normal 1 0 0
    outer loop
      vertex 60.5 18 0
      vertex 60.5 4 1.5
      vertex 60.5 4 0
    endloop
  endfacet
  facet normal -1 0 0
    outer loop
      vertex 74.5 4 0
      vertex 74.5 18 1.5
      vertex 74.5 18 0
    endloop
  endfacet
  facet normal -1 -0 0
    outer loop
      vertex 74.5 18 1.5
      vertex 74.5 4 0
      vertex 74.5 4 1.5
    endloop
  endfacet
  facet normal 0 -1 0
    outer loop
      vertex 60.5 18 0
      vertex 74.5 18 1.5
      vertex 60.5 18 1.5
    endloop
  endfacet
  facet normal 0 -1 -0
    outer loop
      vertex 74.5 18 1.5
      vertex 60.5 18 0
      vertex 74.5 18 0
    endloop
  endfacet
  facet normal 0 1 -0
    outer loop
      vertex 74.5 4 0
      vertex 60.5 4 1.5
      vertex 74.5 4 1.5
    endloop
  endfacet
  facet normal 0 1 0
    outer loop
      vertex 60.5 4 1.5
      vertex 74.5 4 0
      vertex 60.5 4 0
    endloop
  endfacet
  facet normal 1 -0 0
    outer loop
      vertex 75.5 4 1.5
      vertex 75.5 18 0
      vertex 75.5 18 1.5
    endloop
  endfacet
  facet normal 1 0 0
    outer loop
      vertex 75.5 18 0
      vertex 75.5 4 1.5
      vertex 75.5 4 0
    endloop
  endfacet
  facet normal -1 0 0
    outer loop
      vertex 89.5 4 0
      vertex 89.5 18 1.5
      vertex 89.5 18 0
    endloop
  endfacet
  facet normal -1 -0 0
    outer loop
      vertex 89.5 18 1.5
      vertex 89.5 4 0
      vertex 89.5 4 1.5
    endloop
  endfacet
  facet normal 0 1 -0
    outer loop
      vertex 89.5 4 0
      vertex 75.5 4 1.5
      vertex 89.5 4 1.5
    endloop
  endfacet
  facet normal 0 1 0
    outer loop
      vertex 75.5 4 1.5
      vertex 89.5 4 0
      vertex 75.5 4 0
    endloop
  endfacet
  facet normal 0 -1 0
    outer loop
      vertex 75.5 18 0
      vertex 89.5 18 1.5
      vertex 75.5 18 1.5
    endloop
  endfacet
  facet normal 0 -1 -0
    outer loop
      vertex 89.5 18 1.5
      vertex 75.5 18 0
      vertex 89.5 18 0
    endloop
  endfacet
  facet normal 1 -0 0
    outer loop
      vertex 90.5 4 1.5
      vertex 90.5 18 0
      vertex 90.5 18 1.5
    endloop
  endfacet
  facet normal 1 0 0
    outer loop
      vertex 90.5 18 0
      vertex 90.5 4 1.5
      vertex 90.5 4 0
    endloop
  endfacet
  facet normal -1 0 0
    outer loop
      vertex 104.5 4 0
      vertex 104.5 18 1.5
      vertex 104.5 18 0
    endloop
  endfacet
  facet normal -1 -0 0
    outer loop
      vertex 104.5 18 1.5
      vertex 104.5 4 0
      vertex 104.5 4 1.5
    endloop
  endfacet
  facet normal 0 1 -0
    outer loop
      vertex 104.5 4 0
      vertex 90.5 4 1.5
      vertex 104.5 4 1.5
    endloop
  endfacet
  facet normal 0 1 0
    outer loop
      vertex 90.5 4 1.5
      vertex 104.5 4 0
      vertex 90.5 4 0
    endloop
  endfacet
  facet normal 0 -1 0
    outer loop
      vertex 90.5 18 0
      vertex 104.5 18 1.5
      vertex 90.5 18 1.5
    endloop
  endfacet
  facet normal 0 -1 -0
    outer loop
      vertex 104.5 18 1.5
      vertex 90.5 18 0
      vertex 104.5 18 0
    endloop
  endfacet
  facet normal 1 -0 0
    outer loop
      vertex 105.5 4 1.5
      vertex 105.5 18 0
      vertex 105.5 18 1.5
    endloop
  endfacet
  facet normal 1 0 0
    outer loop
      vertex 105.5 18 0
      vertex 105.5 4 1.5
      vertex 105.5 4 0
    endloop
  endfacet
  facet normal -1 0 0
    outer loop
      vertex 119.5 4 0
      vertex 119.5 18 1.5
      vertex 119.5 18 0
    endloop
  endfacet
  facet normal -1 -0 0
    outer loop
      vertex 119.5 18 1.5
      vertex 119.5 4 0
      vertex 119.5 4 1.5
    endloop
  endfacet
  facet normal 0 -1 0
    outer loop
      vertex 105.5 18 0
      vertex 119.5 18 1.5
      vertex 105.5 18 1.5
    endloop
  endfacet
  facet normal 0 -1 -0
    outer loop
      vertex 119.5 18 1.5
      vertex 105.5 18 0
      vertex 119.5 18 0
    endloop
  endfacet
  facet normal 0 1 -0
    outer loop
      vertex 119.5 4 0
      vertex 105.5 4 1.5
      vertex 119.5 4 1.5
    endloop
  endfacet
  facet normal 0 1 0
    outer loop
      vertex 105.5 4 1.5
      vertex 119.5 4 0
      vertex 105.5 4 0
    endloop
  endfacet
  facet normal 1 -0 0
    outer loop
      vertex 120.5 4 1.5
      vertex 120.5 18 0
      vertex 120.5 18 1.5
    endloop
  endfacet
  facet normal 1 0 0
    outer loop
      vertex 120.5 18 0
      vertex 120.5 4 1.5
      vertex 120.5 4 0
    endloop
  endfacet
  facet normal -1 0 0
    outer loop
      vertex 134.5 4 0
      vertex 134.5 18 1.5
      vertex 134.5 18 0
    endloop
  endfacet
  facet normal -1 -0 0
    outer loop
      vertex 134.5 18 1.5
      vertex 134.5 4 0
      vertex 134.5 4 1.5
    endloop
  endfacet
  facet normal 0 -1 0
    outer loop
      vertex 120.5 18 0
      vertex 134.5 18 1.5
      vertex 120.5 18 1.5
    endloop
  endfacet
  facet normal 0 -1 -0
    outer loop
      vertex 134.5 18 1.5
      vertex 120.5 18 0
      vertex 134.5 18 0
    endloop
  endfacet
  facet normal 0 1 -0
    outer loop
      vertex 134.5 4 0
      vertex 120.5 4 1.5
      vertex 134.5 4 1.5
    endloop
  endfacet
  facet normal 0 1 0
    outer loop
      vertex 120.5 4 1.5
      vertex 134.5 4 0
      vertex 120.5 4 0
    endloop
  endfacet
  facet normal 1 -0 0
    outer loop
      vertex 135.5 4 1.5
      vertex 135.5 18 0
      vertex 135.5 18 1.5
    endloop
  endfacet
  facet normal 1 0 0
    outer loop
      vertex 135.5 18 0
      vertex 135.5 4 1.5
      vertex 135.5 4 0
    endloop
  endfacet
  facet normal -1 0 0
    outer loop
      vertex 149.5 4 0
      vertex 149.5 18 1.5
      vertex 149.5 18 0
    endloop
  endfacet
  facet normal -1 -0 0
    outer loop
      vertex 149.5 18 1.5
      vertex 149.5 4 0
      vertex 149.5 4 1.5
    endloop
  endfacet
  facet normal 0 -1 0
    outer loop
      vertex 135.5 18 0
      vertex 149.5 18 1.5
      vertex 135.5 18 1.5
    endloop
  endfacet
  facet normal 0 -1 -0
    outer loop
      vertex 149.5 18 1.5
      vertex 135.5 18 0
      vertex 149.5 18 0
    endloop
  endfacet
  facet normal 0 1 -0
    outer loop
      vertex 149.5 4 0
      vertex 135.5 4 1.5
      vertex 149.5 4 1.5
    endloop
  endfacet
  facet normal 0 1 0
    outer loop
      vertex 135.5 4 1.5
      vertex 149.5 4 0
      vertex 135.5 4 0
    endloop
  endfacet
  facet normal 1 -0 0
    outer loop
      vertex 150.5 4 1.5
      vertex 150.5 18 0
      vertex 150.5 18 1.5
    endloop
  endfacet
  facet normal 1 0 0
    outer loop
      vertex 150.5 18 0
      vertex 150.5 4 1.5
      vertex 150.5 4 0
    endloop
  endfacet
  facet normal -1 0 0
    outer loop
      vertex 164.5 4 0
      vertex 164.5 18 1.5
      vertex 164.5 18 0
    endloop
  endfacet
  facet normal -1 -0 0
    outer loop
      vertex 164.5 18 1.5
      vertex 164.5 4 0
      vertex 164.5 4 1.5
    endloop
  endfacet
  facet normal 0 -1 0
    outer loop
      vertex 150.5 18 0
      vertex 164.5 18 1.5
      vertex 150.5 18 1.5
    endloop
  endfacet
  facet normal 0 -1 -0
    outer loop
      vertex 164.5 18 1.5
      vertex 150.5 18 0
      vertex 164.5 18 0
    endloop
  endfacet
  facet normal 0 1 -0
    outer loop
      vertex 164.5 4 0
      vertex 150.5 4 1.5
      vertex 164.5 4 1.5
    endloop
  endfacet
  facet normal 0 1 0
    outer loop
      vertex 150.5 4 1.5
      vertex 164.5 4 0
      vertex 150.5 4 0
    endloop
  endfacet
  facet normal 1 -0 0
    outer loop
      vertex 165.5 4 1.5
      vertex 165.5 18 0
      vertex 165.5 18 1.5
    endloop
  endfacet
  facet normal 1 0 0
    outer loop
      vertex 165.5 18 0
      vertex 165.5 4 1.5
      vertex 165.5 4 0
    endloop
  endfacet
  facet normal -1 0 0
    outer loop
      vertex 179.5 4 0
      vertex 179.5 18 1.5
      vertex 179.5 18 0
    endloop
  endfacet
  facet normal -1 -0 0
    outer loop
      vertex 179.5 18 1.5
      vertex 179.5 4 0
      vertex 179.5 4 1.5
    endloop
  endfacet
  facet normal 0 -1 0
    outer loop
      vertex 165.5 18 0
      vertex 179.5 18 1.5
      vertex 165.5 18 1.5
    endloop
  endfacet
  facet normal 0 -1 -0
    outer loop
      vertex 179.5 18 1.5
      vertex 165.5 18 0
      vertex 179.5 18 0
    endloop
  endfacet
  facet normal 0 1 -0
    outer loop
      vertex 179.5 4 0
      vertex 165.5 4 1.5
      vertex 179.5 4 1.5
    endloop
  endfacet
  facet normal 0 1 0
    outer loop
      vertex 165.5 4 1.5
      vertex 179.5 4 0
      vertex 165.5 4 0
    endloop
  endfacet
  facet normal 1 -0 0
    outer loop
      vertex 180.5 4 1.5
      vertex 180.5 18 0
      vertex 180.5 18 1.5
    endloop
  endfacet
  facet normal 1 0 0
    outer loop
      vertex 180.5 18 0
      vertex 180.5 4 1.5
      vertex 180.5 4 0
    endloop
  endfacet
  facet normal -1 0 0
    outer loop
      vertex 194.5 4 0
      vertex 194.5 18 1.5
      vertex 194.5 18 0
    endloop
  endfacet
  facet normal -1 -0 0
    outer loop
      vertex 194.5 18 1.5
      vertex 194.5 4 0
      vertex 194.5 4 1.5
    endloop
  endfacet
  facet normal 0 -1 0
    outer loop
      vertex 180.5 18 0
      vertex 194.5 18 1.5
      vertex 180.5 18 1.5
    endloop
  endfacet
  facet normal 0 -1 -0
    outer loop
      vertex 194.5 18 1.5
      vertex 180.5 18 0
      vertex 194.5 18 0
    endloop
  endfacet
  facet normal 0 1 -0
    outer loop
      vertex 194.5 4 0
      vertex 180.5 4 1.5
      vertex 194.5 4 1.5
    endloop
  endfacet
  facet normal 0 1 0
    outer loop
      vertex 180.5 4 1.5
      vertex 194.5 4 0
      vertex 180.5 4 0
    endloop
  endfacet
  facet normal 1 -0 0
    outer loop
      vertex 195.5 4 1.5
      vertex 195.5 18 0
      vertex 195.5 18 1.5
    endloop
  endfacet
  facet normal 1 0 0
    outer loop
      vertex 195.5 18 0
      vertex 195.5 4 1.5
      vertex 195.5 4 0
    endloop
  endfacet
  facet normal -1 0 0
    outer loop
      vertex 209.5 4 0
      vertex 209.5 18 1.5
      vertex 209.5 18 0
    endloop
  endfacet
  facet normal -1 -0 0
    outer loop
      vertex 209.5 18 1.5
      vertex 209.5 4 0
      vertex 209.5 4 1.5
    endloop
  endfacet
  facet normal 0 -1 0
    outer loop
      vertex 195.5 18 0
      vertex 209.5 18 1.5
      vertex 195.5 18 1.5
    endloop
  endfacet
  facet normal 0 -1 -0
    outer loop
      vertex 209.5 18 1.5
      vertex 195.5 18 0
      vertex 209.5 18 0
    endloop
  endfacet
  facet normal 0 1 -0
    outer loop
      vertex 209.5 4 0
      vertex 195.5 4 1.5
      vertex 209.5 4 1.5
    endloop
  endfacet
  facet normal 0 1 0
    outer loop
      vertex 195.5 4 1.5
      vertex 209.5 4 0
      vertex 195.5 4 0
    endloop
  endfacet
  facet normal -1 0 0
    outer loop
      vertex 0 0 0
      vertex 0 22 1.5
      vertex 0 22 0
    endloop
  endfacet
  facet normal -1 -0 0
    outer loop
      vertex 0 22 1.5
      vertex 0 0 0
      vertex 0 0 1.5
    endloop
  endfacet
  facet normal 0 0 1
    outer loop
      vertex 210 22 1.5
      vertex 209.5 18 1.5
      vertex 210 0 1.5
    endloop
  endfacet
  facet normal 0 0 1
    outer loop
      vertex 210 22 1.5
      vertex 195.5 18 1.5
      vertex 209.5 18 1.5
    endloop
  endfacet
  facet normal 0 0 1
    outer loop
      vertex 195.5 18 1.5
      vertex 194.5 18 1.5
      vertex 195.5 4 1.5
    endloop
  endfacet
  facet normal 0 0 1
    outer loop
      vertex 210 22 1.5
      vertex 194.5 18 1.5
      vertex 195.5 18 1.5
    endloop
  endfacet
  facet normal 0 0 1
    outer loop
      vertex 210 22 1.5
      vertex 180.5 18 1.5
      vertex 194.5 18 1.5
    endloop
  endfacet
  facet normal 0 0 1
    outer loop
      vertex 180.5 18 1.5
      vertex 179.5 18 1.5
      vertex 180.5 4 1.5
    endloop
  endfacet
  facet normal 0 0 1
    outer loop
      vertex 210 22 1.5
      vertex 179.5 18 1.5
      vertex 180.5 18 1.5
    endloop
  endfacet
  facet normal 0 0 1
    outer loop
      vertex 210 22 1.5
      vertex 165.5 18 1.5
      vertex 179.5 18 1.5
    endloop
  endfacet
  facet normal 0 0 1
    outer loop
      vertex 165.5 18 1.5
      vertex 164.5 18 1.5
      vertex 165.5 4 1.5
    endloop
  endfacet
  facet normal 0 0 1
    outer loop
      vertex 210 22 1.5
      vertex 164.5 18 1.5
      vertex 165.5 18 1.5
    endloop
  endfacet
  facet normal 0 0 1
    outer loop
      vertex 210 22 1.5
      vertex 150.5 18 1.5
      vertex 164.5 18 1.5
    endloop
  endfacet
  facet normal 0 0 1
    outer loop
      vertex 150.5 18 1.5
      vertex 149.5 18 1.5
      vertex 150.5 4 1.5
    endloop
  endfacet
  facet normal 0 0 1
    outer loop
      vertex 210 22 1.5
      vertex 149.5 18 1.5
      vertex 150.5 18 1.5
    endloop
  endfacet
  facet normal 0 0 1
    outer loop
      vertex 210 22 1.5
      vertex 135.5 18 1.5
      vertex 149.5 18 1.5
    endloop
  endfacet
  facet normal 0 0 1
    outer loop
      vertex 135.5 18 1.5
      vertex 134.5 18 1.5
      vertex 135.5 4 1.5
    endloop
  endfacet
  facet normal 0 0 1
    outer loop
      vertex 210 22 1.5
      vertex 134.5 18 1.5
      vertex 135.5 18 1.5
    endloop
  endfacet
  facet normal 0 0 1
    outer loop
      vertex 210 22 1.5
      vertex 120.5 18 1.5
      vertex 134.5 18 1.5
    endloop
  endfacet
  facet normal 0 0 1
    outer loop
      vertex 120.5 18 1.5
      vertex 119.5 18 1.5
      vertex 120.5 4 1.5
    endloop
  endfacet
  facet normal 0 0 1
    outer loop
      vertex 210 22 1.5
      vertex 119.5 18 1.5
      vertex 120.5 18 1.5
    endloop
  endfacet
  facet normal 0 0 1
    outer loop
      vertex 210 22 1.5
      vertex 105.5 18 1.5
      vertex 119.5 18 1.5
    endloop
  endfacet
  facet normal 0 0 1
    outer loop
      vertex 105.5 18 1.5
      vertex 104.5 18 1.5
      vertex 105.5 4 1.5
    endloop
  endfacet
  facet normal 0 0 1
    outer loop
      vertex 210 22 1.5
      vertex 104.5 18 1.5
      vertex 105.5 18 1.5
    endloop
  endfacet
  facet normal 0 0 1
    outer loop
      vertex 210 22 1.5
      vertex 90.5 18 1.5
      vertex 104.5 18 1.5
    endloop
  endfacet
  facet normal 0 0 1
    outer loop
      vertex 90.5 18 1.5
      vertex 89.5 18 1.5
      vertex 90.5 4 1.5
    endloop
  endfacet
  facet normal -0 0 1
    outer loop
      vertex 0 22 1.5
      vertex 90.5 18 1.5
      vertex 210 22 1.5
    endloop
  endfacet
  facet normal 0 0 1
    outer loop
      vertex 90.5 18 1.5
      vertex 0 22 1.5
      vertex 89.5 18 1.5
    endloop
  endfacet
  facet normal 0 0 1
    outer loop
      vertex 75.5 18 1.5
      vertex 74.5 18 1.5
      vertex 75.5 4 1.5
    endloop
  endfacet
  facet normal 0 0 1
    outer loop
      vertex 89.5 18 1.5
      vertex 0 22 1.5
      vertex 75.5 18 1.5
    endloop
  endfacet
  facet normal 0 0 1
    outer loop
      vertex 75.5 18 1.5
      vertex 0 22 1.5
      vertex 74.5 18 1.5
    endloop
  endfacet
  facet normal 0 0 1
    outer loop
      vertex 60.5 18 1.5
      vertex 59.5 18 1.5
      vertex 60.5 4 1.5
    endloop
  endfacet
  facet normal 0 0 1
    outer loop
      vertex 74.5 18 1.5
      vertex 0 22 1.5
      vertex 60.5 18 1.5
    endloop
  endfacet
  facet normal 0 0 1
    outer loop
      vertex 60.5 18 1.5
      vertex 0 22 1.5
      vertex 59.5 18 1.5
    endloop
  endfacet
  facet normal 0 0 1
    outer loop
      vertex 45.5 18 1.5
      vertex 44.5 18 1.5
      vertex 45.5 4 1.5
    endloop
  endfacet
  facet normal 0 0 1
    outer loop
      vertex 59.5 18 1.5
      vertex 0 22 1.5
      vertex 45.5 18 1.5
    endloop
  endfacet
  facet normal 0 0 1
    outer loop
      vertex 45.5 18 1.5
      vertex 0 22 1.5
      vertex 44.5 18 1.5
    endloop
  endfacet
  facet normal 0 0 1
    outer loop
      vertex 30.5 18 1.5
      vertex 29.5 18 1.5
      vertex 30.5 4 1.5
    endloop
  endfacet
  facet normal 0 0 1
    outer loop
      vertex 44.5 18 1.5
      vertex 0 22 1.5
      vertex 30.5 18 1.5
    endloop
  endfacet
  facet normal 0 0 1
    outer loop
      vertex 30.5 18 1.5
      vertex 0 22 1.5
      vertex 29.5 18 1.5
    endloop
  endfacet
  facet normal 0 0 1
    outer loop
      vertex 15.5 18 1.5
      vertex 14.5 18 1.5
      vertex 15.5 4 1.5
    endloop
  endfacet
  facet normal 0 0 1
    outer loop
      vertex 29.5 18 1.5
      vertex 0 22 1.5
      vertex 15.5 18 1.5
    endloop
  endfacet
  facet normal 0 0 1
    outer loop
      vertex 15.5 18 1.5
      vertex 0 22 1.5
      vertex 14.5 18 1.5
    endloop
  endfacet
  facet normal 0 0 1
    outer loop
      vertex 0.5 18 1.5
      vertex 0 22 1.5
      vertex 0.5 4 1.5
    endloop
  endfacet
  facet normal 0 0 1
    outer loop
      vertex 14.5 18 1.5
      vertex 0 22 1.5
      vertex 0.5 18 1.5
    endloop
  endfacet
  facet normal -0 0 1
    outer loop
      vertex 209.5 4 1.5
      vertex 210 0 1.5
      vertex 209.5 18 1.5
    endloop
  endfacet
  facet normal -0 0 1
    outer loop
      vertex 195.5 4 1.5
      vertex 210 0 1.5
      vertex 209.5 4 1.5
    endloop
  endfacet
  facet normal 0 0 1
    outer loop
      vertex 194.5 4 1.5
      vertex 195.5 4 1.5
      vertex 194.5 18 1.5
    endloop
  endfacet
  facet normal -0 0 1
    outer loop
      vertex 194.5 4 1.5
      vertex 210 0 1.5
      vertex 195.5 4 1.5
    endloop
  endfacet
  facet normal -0 0 1
    outer loop
      vertex 180.5 4 1.5
      vertex 210 0 1.5
      vertex 194.5 4 1.5
    endloop
  endfacet
  facet normal 0 0 1
    outer loop
      vertex 179.5 4 1.5
      vertex 180.5 4 1.5
      vertex 179.5 18 1.5
    endloop
  endfacet
  facet normal -0 0 1
    outer loop
      vertex 179.5 4 1.5
      vertex 210 0 1.5
      vertex 180.5 4 1.5
    endloop
  endfacet
  facet normal -0 0 1
    outer loop
      vertex 165.5 4 1.5
      vertex 210 0 1.5
      vertex 179.5 4 1.5
    endloop
  endfacet
  facet normal 0 0 1
    outer loop
      vertex 164.5 4 1.5
      vertex 165.5 4 1.5
      vertex 164.5 18 1.5
    endloop
  endfacet
  facet normal -0 0 1
    outer loop
      vertex 164.5 4 1.5
      vertex 210 0 1.5
      vertex 165.5 4 1.5
    endloop
  endfacet
  facet normal -0 0 1
    outer loop
      vertex 150.5 4 1.5
      vertex 210 0 1.5
      vertex 164.5 4 1.5
    endloop
  endfacet
  facet normal 0 0 1
    outer loop
      vertex 149.5 4 1.5
      vertex 150.5 4 1.5
      vertex 149.5 18 1.5
    endloop
  endfacet
  facet normal -0 0 1
    outer loop
      vertex 149.5 4 1.5
      vertex 210 0 1.5
      vertex 150.5 4 1.5
    endloop
  endfacet
  facet normal -0 0 1
    outer loop
      vertex 135.5 4 1.5
      vertex 210 0 1.5
      vertex 149.5 4 1.5
    endloop
  endfacet
  facet normal 0 0 1
    outer loop
      vertex 134.5 4 1.5
      vertex 135.5 4 1.5
      vertex 134.5 18 1.5
    endloop
  endfacet
  facet normal -0 0 1
    outer loop
      vertex 134.5 4 1.5
      vertex 210 0 1.5
      vertex 135.5 4 1.5
    endloop
  endfacet
  facet normal -0 0 1
    outer loop
      vertex 120.5 4 1.5
      vertex 210 0 1.5
      vertex 134.5 4 1.5
    endloop
  endfacet
  facet normal 0 0 1
    outer loop
      vertex 119.5 4 1.5
      vertex 120.5 4 1.5
      vertex 119.5 18 1.5
    endloop
  endfacet
  facet normal -0 0 1
    outer loop
      vertex 119.5 4 1.5
      vertex 210 0 1.5
      vertex 120.5 4 1.5
    endloop
  endfacet
  facet normal -0 0 1
    outer loop
      vertex 105.5 4 1.5
      vertex 210 0 1.5
      vertex 119.5 4 1.5
    endloop
  endfacet
  facet normal 0 0 1
    outer loop
      vertex 104.5 4 1.5
      vertex 105.5 4 1.5
      vertex 104.5 18 1.5
    endloop
  endfacet
  facet normal -0 0 1
    outer loop
      vertex 104.5 4 1.5
      vertex 210 0 1.5
      vertex 105.5 4 1.5
    endloop
  endfacet
  facet normal -0 0 1
    outer loop
      vertex 90.5 4 1.5
      vertex 210 0 1.5
      vertex 104.5 4 1.5
    endloop
  endfacet
  facet normal 0 0 1
    outer loop
      vertex 89.5 4 1.5
      vertex 90.5 4 1.5
      vertex 89.5 18 1.5
    endloop
  endfacet
  facet normal 0 0 1
    outer loop
      vertex 0 0 1.5
      vertex 90.5 4 1.5
      vertex 89.5 4 1.5
    endloop
  endfacet
  facet normal 0 0 1
    outer loop
      vertex 0 0 1.5
      vertex 89.5 4 1.5
      vertex 75.5 4 1.5
    endloop
  endfacet
  facet normal 0 0 1
    outer loop
      vertex 74.5 4 1.5
      vertex 75.5 4 1.5
      vertex 74.5 18 1.5
    endloop
  endfacet
  facet normal 0 0 1
    outer loop
      vertex 0 0 1.5
      vertex 75.5 4 1.5
      vertex 74.5 4 1.5
    endloop
  endfacet
  facet normal 0 0 1
    outer loop
      vertex 0 0 1.5
      vertex 74.5 4 1.5
      vertex 60.5 4 1.5
    endloop
  endfacet
  facet normal 0 0 1
    outer loop
      vertex 59.5 4 1.5
      vertex 60.5 4 1.5
      vertex 59.5 18 1.5
    endloop
  endfacet
  facet normal 0 0 1
    outer loop
      vertex 0 0 1.5
      vertex 60.5 4 1.5
      vertex 59.5 4 1.5
    endloop
  endfacet
  facet normal 0 0 1
    outer loop
      vertex 0 0 1.5
      vertex 59.5 4 1.5
      vertex 45.5 4 1.5
    endloop
  endfacet
  facet normal 0 0 1
    outer loop
      vertex 44.5 4 1.5
      vertex 45.5 4 1.5
      vertex 44.5 18 1.5
    endloop
  endfacet
  facet normal 0 0 1
    outer loop
      vertex 0 0 1.5
      vertex 45.5 4 1.5
      vertex 44.5 4 1.5
    endloop
  endfacet
  facet normal 0 0 1
    outer loop
      vertex 0 0 1.5
      vertex 44.5 4 1.5
      vertex 30.5 4 1.5
    endloop
  endfacet
  facet normal 0 0 1
    outer loop
      vertex 29.5 4 1.5
      vertex 30.5 4 1.5
      vertex 29.5 18 1.5
    endloop
  endfacet
  facet normal 0 0 1
    outer loop
      vertex 0 0 1.5
      vertex 30.5 4 1.5
      vertex 29.5 4 1.5
    endloop
  endfacet
  facet normal 0 0 1
    outer loop
      vertex 0 0 1.5
      vertex 29.5 4 1.5
      vertex 15.5 4 1.5
    endloop
  endfacet
  facet normal 0 0 1
    outer loop
      vertex 14.5 4 1.5
      vertex 15.5 4 1.5
      vertex 14.5 18 1.5
    endloop
  endfacet
  facet normal 0 0 1
    outer loop
      vertex 0 0 1.5
      vertex 15.5 4 1.5
      vertex 14.5 4 1.5
    endloop
  endfacet
  facet normal 0 0 1
    outer loop
      vertex 0 0 1.5
      vertex 14.5 4 1.5
      vertex 0.5 4 1.5
    endloop
  endfacet
  facet normal 0 0 1
    outer loop
      vertex 90.5 4 1.5
      vertex 0 0 1.5
      vertex 210 0 1.5
    endloop
  endfacet
  facet normal 0 0 1
    outer loop
      vertex 0 0 1.5
      vertex 0.5 4 1.5
      vertex 0 22 1.5
    endloop
  endfacet
  facet normal 1 -0 0
    outer loop
      vertex 210 0 1.5
      vertex 210 22 0
      vertex 210 22 1.5
    endloop
  endfacet
  facet normal 1 0 0
    outer loop
      vertex 210 22 0
      vertex 210 0 1.5
      vertex 210 0 0
    endloop
  endfacet
  facet normal 0 1 -0
    outer loop
      vertex 210 22 0
      vertex 0 22 1.5
      vertex 210 22 1.5
    endloop
  endfacet
  facet normal 0 1 0
    outer loop
      vertex 0 22 1.5
      vertex 210 22 0
      vertex 0 22 0
    endloop
  endfacet
  facet normal 0 0 -1
    outer loop
      vertex 210 0 0
      vertex 209.5 4 0
      vertex 210 22 0
    endloop
  endfacet
  facet normal 0 0 -1
    outer loop
      vertex 210 0 0
      vertex 195.5 4 0
      vertex 209.5 4 0
    endloop
  endfacet
  facet normal 0 0 -1
    outer loop
      vertex 195.5 4 0
      vertex 194.5 4 0
      vertex 195.5 18 0
    endloop
  endfacet
  facet normal 0 0 -1
    outer loop
      vertex 210 0 0
      vertex 194.5 4 0
      vertex 195.5 4 0
    endloop
  endfacet
  facet normal 0 0 -1
    outer loop
      vertex 210 0 0
      vertex 180.5 4 0
      vertex 194.5 4 0
    endloop
  endfacet
  facet normal 0 0 -1
    outer loop
      vertex 180.5 4 0
      vertex 179.5 4 0
      vertex 180.5 18 0
    endloop
  endfacet
  facet normal 0 0 -1
    outer loop
      vertex 210 0 0
      vertex 179.5 4 0
      vertex 180.5 4 0
    endloop
  endfacet
  facet normal 0 0 -1
    outer loop
      vertex 210 0 0
      vertex 165.5 4 0
      vertex 179.5 4 0
    endloop
  endfacet
  facet normal 0 0 -1
    outer loop
      vertex 165.5 4 0
      vertex 164.5 4 0
      vertex 165.5 18 0
    endloop
  endfacet
  facet normal 0 0 -1
    outer loop
      vertex 210 0 0
      vertex 164.5 4 0
      vertex 165.5 4 0
    endloop
  endfacet
  facet normal 0 0 -1
    outer loop
      vertex 210 0 0
      vertex 150.5 4 0
      vertex 164.5 4 0
    endloop
  endfacet
  facet normal 0 0 -1
    outer loop
      vertex 150.5 4 0
      vertex 149.5 4 0
      vertex 150.5 18 0
    endloop
  endfacet
  facet normal 0 0 -1
    outer loop
      vertex 210 0 0
      vertex 149.5 4 0
      vertex 150.5 4 0
    endloop
  endfacet
  facet normal 0 0 -1
    outer loop
      vertex 210 0 0
      vertex 135.5 4 0
      vertex 149.5 4 0
    endloop
  endfacet
  facet normal 0 0 -1
    outer loop
      vertex 135.5 4 0
      vertex 134.5 4 0
      vertex 135.5 18 0
    endloop
  endfacet
  facet normal 0 0 -1
    outer loop
      vertex 210 0 0
      vertex 134.5 4 0
      vertex 135.5 4 0
    endloop
  endfacet
  facet normal 0 0 -1
    outer loop
      vertex 210 0 0
      vertex 120.5 4 0
      vertex 134.5 4 0
    endloop
  endfacet
  facet normal 0 0 -1
    outer loop
      vertex 120.5 4 0
      vertex 119.5 4 0
      vertex 120.5 18 0
    endloop
  endfacet
  facet normal 0 0 -1
    outer loop
      vertex 210 0 0
      vertex 119.5 4 0
      vertex 120.5 4 0
    endloop
  endfacet
  facet normal 0 0 -1
    outer loop
      vertex 210 0 0
      vertex 105.5 4 0
      vertex 119.5 4 0
    endloop
  endfacet
  facet normal 0 0 -1
    outer loop
      vertex 105.5 4 0
      vertex 104.5 4 0
      vertex 105.5 18 0
    endloop
  endfacet
  facet normal 0 0 -1
    outer loop
      vertex 210 0 0
      vertex 104.5 4 0
      vertex 105.5 4 0
    endloop
  endfacet
  facet normal 0 0 -1
    outer loop
      vertex 210 0 0
      vertex 90.5 4 0
      vertex 104.5 4 0
    endloop
  endfacet
  facet normal 0 0 -1
    outer loop
      vertex 90.5 4 0
      vertex 89.5 4 0
      vertex 90.5 18 0
    endloop
  endfacet
  facet normal 0 0 -1
    outer loop
      vertex 0 0 0
      vertex 90.5 4 0
      vertex 210 0 0
    endloop
  endfacet
  facet normal -0 0 -1
    outer loop
      vertex 90.5 4 0
      vertex 0 0 0
      vertex 89.5 4 0
    endloop
  endfacet
  facet normal 0 0 -1
    outer loop
      vertex 75.5 4 0
      vertex 74.5 4 0
      vertex 75.5 18 0
    endloop
  endfacet
  facet normal -0 0 -1
    outer loop
      vertex 89.5 4 0
      vertex 0 0 0
      vertex 75.5 4 0
    endloop
  endfacet
  facet normal -0 0 -1
    outer loop
      vertex 75.5 4 0
      vertex 0 0 0
      vertex 74.5 4 0
    endloop
  endfacet
  facet normal 0 0 -1
    outer loop
      vertex 60.5 4 0
      vertex 59.5 4 0
      vertex 60.5 18 0
    endloop
  endfacet
  facet normal -0 0 -1
    outer loop
      vertex 74.5 4 0
      vertex 0 0 0
      vertex 60.5 4 0
    endloop
  endfacet
  facet normal -0 0 -1
    outer loop
      vertex 60.5 4 0
      vertex 0 0 0
      vertex 59.5 4 0
    endloop
  endfacet
  facet normal 0 0 -1
    outer loop
      vertex 45.5 4 0
      vertex 44.5 4 0
      vertex 45.5 18 0
    endloop
  endfacet
  facet normal -0 0 -1
    outer loop
      vertex 59.5 4 0
      vertex 0 0 0
      vertex 45.5 4 0
    endloop
  endfacet
  facet normal -0 0 -1
    outer loop
      vertex 45.5 4 0
      vertex 0 0 0
      vertex 44.5 4 0
    endloop
  endfacet
  facet normal 0 0 -1
    outer loop
      vertex 30.5 4 0
      vertex 29.5 4 0
      vertex 30.5 18 0
    endloop
  endfacet
  facet normal -0 0 -1
    outer loop
      vertex 44.5 4 0
      vertex 0 0 0
      vertex 30.5 4 0
    endloop
  endfacet
  facet normal -0 0 -1
    outer loop
      vertex 30.5 4 0
      vertex 0 0 0
      vertex 29.5 4 0
    endloop
  endfacet
  facet normal 0 0 -1
    outer loop
      vertex 15.5 4 0
      vertex 14.5 4 0
      vertex 15.5 18 0
    endloop
  endfacet
  facet normal -0 0 -1
    outer loop
      vertex 29.5 4 0
      vertex 0 0 0
      vertex 15.5 4 0
    endloop
  endfacet
  facet normal -0 0 -1
    outer loop
      vertex 15.5 4 0
      vertex 0 0 0
      vertex 14.5 4 0
    endloop
  endfacet
  facet normal -0 0 -1
    outer loop
      vertex 0.5 4 0
      vertex 0 0 0
      vertex 0.5 18 0
    endloop
  endfacet
  facet normal -0 0 -1
    outer loop
      vertex 14.5 4 0
      vertex 0 0 0
      vertex 0.5 4 0
    endloop
  endfacet
  facet normal 0 0 -1
    outer loop
      vertex 209.5 18 0
      vertex 210 22 0
      vertex 209.5 4 0
    endloop
  endfacet
  facet normal 0 0 -1
    outer loop
      vertex 195.5 18 0
      vertex 210 22 0
      vertex 209.5 18 0
    endloop
  endfacet
  facet normal 0 0 -1
    outer loop
      vertex 194.5 18 0
      vertex 195.5 18 0
      vertex 194.5 4 0
    endloop
  endfacet
  facet normal 0 0 -1
    outer loop
      vertex 194.5 18 0
      vertex 210 22 0
      vertex 195.5 18 0
    endloop
  endfacet
  facet normal 0 0 -1
    outer loop
      vertex 180.5 18 0
      vertex 210 22 0
      vertex 194.5 18 0
    endloop
  endfacet
  facet normal 0 0 -1
    outer loop
      vertex 179.5 18 0
      vertex 180.5 18 0
      vertex 179.5 4 0
    endloop
  endfacet
  facet normal 0 0 -1
    outer loop
      vertex 179.5 18 0
      vertex 210 22 0
      vertex 180.5 18 0
    endloop
  endfacet
  facet normal 0 0 -1
    outer loop
      vertex 165.5 18 0
      vertex 210 22 0
      vertex 179.5 18 0
    endloop
  endfacet
  facet normal 0 0 -1
    outer loop
      vertex 164.5 18 0
      vertex 165.5 18 0
      vertex 164.5 4 0
    endloop
  endfacet
  facet normal 0 0 -1
    outer loop
      vertex 164.5 18 0
      vertex 210 22 0
      vertex 165.5 18 0
    endloop
  endfacet
  facet normal 0 0 -1
    outer loop
      vertex 150.5 18 0
      vertex 210 22 0
      vertex 164.5 18 0
    endloop
  endfacet
  facet normal 0 0 -1
    outer loop
      vertex 149.5 18 0
      vertex 150.5 18 0
      vertex 149.5 4 0
    endloop
  endfacet
  facet normal 0 0 -1
    outer loop
      vertex 149.5 18 0
      vertex 210 22 0
      vertex 150.5 18 0
    endloop
  endfacet
  facet normal 0 0 -1
    outer loop
      vertex 135.5 18 0
      vertex 210 22 0
      vertex 149.5 18 0
    endloop
  endfacet
  facet normal 0 0 -1
    outer loop
      vertex 134.5 18 0
      vertex 135.5 18 0
      vertex 134.5 4 0
    endloop
  endfacet
  facet normal 0 0 -1
    outer loop
      vertex 134.5 18 0
      vertex 210 22 0
      vertex 135.5 18 0
    endloop
  endfacet
  facet normal 0 0 -1
    outer loop
      vertex 120.5 18 0
      vertex 210 22 0
      vertex 134.5 18 0
    endloop
  endfacet
  facet normal 0 0 -1
    outer loop
      vertex 119.5 18 0
      vertex 120.5 18 0
      vertex 119.5 4 0
    endloop
  endfacet
  facet normal 0 0 -1
    outer loop
      vertex 119.5 18 0
      vertex 210 22 0
      vertex 120.5 18 0
    endloop
  endfacet
  facet normal 0 0 -1
    outer loop
      vertex 105.5 18 0
      vertex 210 22 0
      vertex 119.5 18 0
    endloop
  endfacet
  facet normal 0 0 -1
    outer loop
      vertex 104.5 18 0
      vertex 105.5 18 0
      vertex 104.5 4 0
    endloop
  endfacet
  facet normal 0 0 -1
    outer loop
      vertex 104.5 18 0
      vertex 210 22 0
      vertex 105.5 18 0
    endloop
  endfacet
  facet normal 0 0 -1
    outer loop
      vertex 90.5 18 0
      vertex 210 22 0
      vertex 104.5 18 0
    endloop
  endfacet
  facet normal 0 0 -1
    outer loop
      vertex 89.5 18 0
      vertex 90.5 18 0
      vertex 89.5 4 0
    endloop
  endfacet
  facet normal 0 0 -1
    outer loop
      vertex 0 22 0
      vertex 90.5 18 0
      vertex 89.5 18 0
    endloop
  endfacet
  facet normal 0 0 -1
    outer loop
      vertex 0 22 0
      vertex 89.5 18 0
      vertex 75.5 18 0
    endloop
  endfacet
  facet normal 0 0 -1
    outer loop
      vertex 74.5 18 0
      vertex 75.5 18 0
      vertex 74.5 4 0
    endloop
  endfacet
  facet normal 0 0 -1
    outer loop
      vertex 0 22 0
      vertex 75.5 18 0
      vertex 74.5 18 0
    endloop
  endfacet
  facet normal 0 0 -1
    outer loop
      vertex 0 22 0
      vertex 74.5 18 0
      vertex 60.5 18 0
    endloop
  endfacet
  facet normal 0 0 -1
    outer loop
      vertex 59.5 18 0
      vertex 60.5 18 0
      vertex 59.5 4 0
    endloop
  endfacet
  facet normal 0 0 -1
    outer loop
      vertex 0 22 0
      vertex 60.5 18 0
      vertex 59.5 18 0
    endloop
  endfacet
  facet normal 0 0 -1
    outer loop
      vertex 0 22 0
      vertex 59.5 18 0
      vertex 45.5 18 0
    endloop
  endfacet
  facet normal 0 0 -1
    outer loop
      vertex 44.5 18 0
      vertex 45.5 18 0
      vertex 44.5 4 0
    endloop
  endfacet
  facet normal 0 0 -1
    outer loop
      vertex 0 22 0
      vertex 45.5 18 0
      vertex 44.5 18 0
    endloop
  endfacet
  facet normal 0 0 -1
    outer loop
      vertex 0 22 0
      vertex 44.5 18 0
      vertex 30.5 18 0
    endloop
  endfacet
  facet normal 0 0 -1
    outer loop
      vertex 29.5 18 0
      vertex 30.5 18 0
      vertex 29.5 4 0
    endloop
  endfacet
  facet normal 0 0 -1
    outer loop
      vertex 0 22 0
      vertex 30.5 18 0
      vertex 29.5 18 0
    endloop
  endfacet
  facet normal 0 0 -1
    outer loop
      vertex 0 22 0
      vertex 29.5 18 0
      vertex 15.5 18 0
    endloop
  endfacet
  facet normal 0 0 -1
    outer loop
      vertex 14.5 18 0
      vertex 15.5 18 0
      vertex 14.5 4 0
    endloop
  endfacet
  facet normal 0 0 -1
    outer loop
      vertex 0 22 0
      vertex 15.5 18 0
      vertex 14.5 18 0
    endloop
  endfacet
  facet normal 0 0 -1
    outer loop
      vertex 0 22 0
      vertex 14.5 18 0
      vertex 0.5 18 0
    endloop
  endfacet
  facet normal 0 0 -1
    outer loop
      vertex 90.5 18 0
      vertex 0 22 0
      vertex 210 22 0
    endloop
  endfacet
  facet normal 0 0 -1
    outer loop
      vertex 0 22 0
      vertex 0.5 18 0
      vertex 0 0 0
    endloop
  endfacet
  facet normal 0 -1 0
    outer loop
      vertex 0 0 0
      vertex 210 0 1.5
      vertex 0 0 1.5
    endloop
  endfacet
  facet normal 0 -1 -0
    outer loop
      vertex 210 0 1.5
      vertex 0 0 0
      vertex 210 0 0
    endloop
  endfacet
endsolid OpenSCAD_Model
